<?xml version="1.0" encoding="utf-8" ?><svg xmlns="http://www.w3.org/2000/svg" xmlns:xlink="http://www.w3.org/1999/xlink" width="824" height="380" viewBox="100 320 824 380"><path fill="#1D2BFF" d="M436.738 546.438C440.048 537.489 437.02 537.331 437.282 528.401C437.326 526.891 438.923 524.773 439.164 523.194C439.93 518.163 439.68 512.388 440.408 507.433C441.091 502.778 443.029 497.361 443.787 492.678C443.859 492.234 443.19 486.616 443.058 486.309C441.405 482.455 447.346 474.143 449.14 471.438C452.369 466.568 469.98 475.827 474.811 475.392C475.064 475.344 475.316 475.296 475.569 475.248L476.081 475.359C479.032 476.027 481.907 476.976 484.792 477.877C504.504 484.029 523.815 491.343 543.258 498.276L589.836 514.368C612.844 522.289 636.425 530.479 659.952 535.948C724.613 550.98 789.825 548.161 846.85 511.361C869.185 496.947 878.705 487.581 898.166 471.401C893.599 480.31 889.181 489.847 884.461 498.518C847.44 566.524 796.824 633.458 720.188 658.239C656.381 678.872 593.512 654.522 537.09 625.188C517.848 615.184 499.365 604.491 480.774 593.335C477.702 591.492 461.251 582.351 459.463 580.718C459.481 580.684 459.51 580.654 459.515 580.616C459.852 578.279 443.496 571.802 441.449 569.022L444.227 570.129C443.278 564.725 441.173 561.836 439.253 556.85C438.094 553.843 437.429 549.682 436.738 546.438Z"/><path fill="#1D2BFF" d="M323.779 443.02C332.384 435.103 340.177 426.517 349.393 418.271C375.954 394.198 407.756 376.64 442.28 366.987C526.647 343.787 595.725 378.576 665.141 422.871C680.579 432.722 697.613 441.176 713.555 450.248C712.359 450.205 711.191 450.095 710.005 449.944C709.487 454.369 709.882 462.601 709.81 467.348C709.778 469.448 707.818 470.36 707.821 470.749C707.893 482.305 702.355 491.745 698.5 502.335C697.707 504.515 696.501 506.925 695.261 508.978C696.514 511.575 702.219 511.469 705.077 511.71C703.904 512.164 703.562 512.068 702.284 512.109C697.374 511.93 688.196 510.213 683.142 509.352C629.31 500.18 581.556 469.454 531.866 447.373C511.664 438.601 490.788 431.469 469.442 426.044C424.681 414.922 363.792 418.985 323.779 443.02Z"/><path fill="#1D2BFF" d="M216.931 476.781C218.237 475.756 223.296 473.278 224.958 472.499C287.689 443.071 352.434 444.377 418.673 459.906C438.11 464.463 456.494 468.406 475.569 475.248C475.316 475.296 475.064 475.344 474.811 475.392C469.98 475.827 452.369 466.568 449.14 471.438C447.346 474.143 441.405 482.455 443.058 486.309C443.19 486.616 443.859 492.234 443.787 492.678C443.029 497.361 441.091 502.778 440.408 507.433C439.68 512.388 439.93 518.163 439.164 523.194C438.923 524.773 437.326 526.891 437.282 528.401C437.02 537.331 440.048 537.489 436.738 546.438C437.429 549.682 438.094 553.843 439.253 556.85C441.173 561.836 443.278 564.725 444.227 570.129L441.449 569.022C443.496 571.802 459.852 578.279 459.515 580.616C459.51 580.654 459.481 580.684 459.463 580.718C379.754 536.28 302.51 500.496 208.787 518.964C199.584 521.495 188.551 524.024 179.636 527.222C171.411 530.172 139.943 541.914 136.145 548.817L135.785 548.905L134.733 548.445C132.911 549.22 129.656 551.213 128.731 551.507L128.198 551.139C130.275 547.529 136.225 540.986 139.168 537.677C159.119 515.246 189.883 489.863 216.931 476.781Z"/><path fill="#1D2BFF" d="M216.931 476.781L217.069 477.572C205.578 485.525 185.843 493.774 176.522 505.405C175.608 506.546 179.224 516.164 177.777 518.675C176.581 520.751 177.617 522.849 179.1 524.394C179.103 524.953 179.099 525.511 179.089 526.069C182.552 525.618 188.197 523.438 191.784 522.345C197.275 520.688 202.834 519.264 208.445 518.076C208.9 518.564 208.778 518.271 208.787 518.964C199.584 521.495 188.551 524.024 179.636 527.222C171.411 530.172 139.943 541.914 136.145 548.817L135.785 548.905L134.733 548.445C132.911 549.22 129.656 551.213 128.731 551.507L128.198 551.139C130.275 547.529 136.225 540.986 139.168 537.677C159.119 515.246 189.883 489.863 216.931 476.781Z"/><path fill="#1D2BFF" d="M138.437 551.544C141.644 551.137 155.143 544.158 159.181 542.56C217.329 519.55 281.605 535.031 336.268 560.207C360.169 571.215 383.801 585.072 407.339 596.953C423.801 605.211 440.833 612.948 457.488 620.819C464.944 624.343 475.22 627.012 482.037 630.529C473.992 630.104 465.841 629.754 457.82 628.989C357.7 619.44 282.372 544.11 179.468 549.65C167.371 550.307 155.358 552.066 143.58 554.904C137.289 556.423 130.78 558.458 124.627 559.88C126.828 558.584 129.331 557.637 129.848 555.009C129.783 552.704 129.959 553.574 128.731 551.507C129.656 551.213 132.911 549.22 134.733 548.445L135.785 548.905C134.431 550.459 134.509 549.739 134.581 551.162C136.102 551.598 136.881 551.526 138.437 551.544Z"/><path fill="#1D2BFF" d="M128.731 551.507C129.656 551.213 132.911 549.22 134.733 548.445L135.785 548.905C134.431 550.459 134.509 549.739 134.581 551.162C136.102 551.598 136.881 551.526 138.437 551.544C137.618 553.256 131.698 556.718 130.093 556.007L129.848 555.009C129.783 552.704 129.959 553.574 128.731 551.507Z"/><path fill="#1D2BFF" d="M702.284 512.109C703.562 512.068 703.904 512.164 705.077 511.71C702.219 511.469 696.514 511.575 695.261 508.978C696.501 506.925 697.707 504.515 698.5 502.335C702.355 491.745 707.893 482.305 707.821 470.749C707.818 470.36 709.778 469.448 709.81 467.348C709.882 462.601 709.487 454.369 710.005 449.944C711.191 450.095 712.359 450.205 713.555 450.248C721.396 453.755 729.21 457.871 737.089 461.459C762.691 473.118 788.639 480.946 816.559 484.699C824.09 485.711 840.186 486.925 847.773 486.048C809.372 505.561 775.954 515.178 732.324 514.151C722.904 513.929 711.556 513.7 702.284 512.109Z"/></svg>