<?xml version="1.0" encoding="UTF-8"?>
<svg id="Layer_1" data-name="Layer 1" xmlns="http://www.w3.org/2000/svg" xmlns:xlink="http://www.w3.org/1999/xlink" viewBox="0 0 773.54 306.34">
  <defs>
    <style>
      .cls-1 {
        fill: url(#linear-gradient-2);
      }

      .cls-2 {
        fill: url(#linear-gradient);
      }
    </style>
    <linearGradient id="linear-gradient" x1="0" y1="197.92" x2="773.54" y2="197.92" gradientUnits="userSpaceOnUse">
      <stop offset="0" stop-color="#000"/>
      <stop offset=".4" stop-color="#1b27e9"/>
    </linearGradient>
    <linearGradient id="linear-gradient-2" x1="199.15" y1="77.32" x2="723.15" y2="77.32" xlink:href="#linear-gradient"/>
  </defs>
  <path class="cls-2" d="M773.54,111.82c-4.57,8.91-8.99,18.45-13.71,27.12-37.02,68.01-87.63,134.94-164.27,159.72-63.81,20.64-126.67-3.71-183.1-33.05-19.24-10-37.72-20.69-56.31-31.85-3.07-1.84-19.53-10.98-21.31-12.62-79.71-44.44-156.96-80.22-250.68-61.75-9.2,2.53-20.24,5.06-29.15,8.26-8.23,2.95-39.69,14.69-43.49,21.59l-.36.09c-1.36,1.55-1.28.83-1.21,2.26,1.53.43,2.3.36,3.86.38,3.21-.41,16.71-7.39,20.74-8.99,58.15-23.01,122.43-7.53,177.09,17.65,23.9,11.01,47.53,24.87,71.07,36.75,16.46,8.25,33.5,15.99,50.15,23.86,7.46,3.53,17.73,6.2,24.55,9.71-8.04-.42-16.2-.77-24.22-1.54-100.12-9.55-175.44-84.88-278.35-79.34-12.1.66-24.11,2.42-35.89,5.26-6.29,1.52-12.8,3.55-18.95,4.97,2.2-1.29,4.7-2.24,5.22-4.87-.06-2.3.11-1.43-1.12-3.5l-.53-.37c2.08-3.61,8.03-10.15,10.97-13.46,19.95-22.43,50.72-47.81,77.76-60.9,1.31-1.02,6.37-3.5,8.03-4.28,62.73-29.42,127.48-28.12,193.72-12.59,19.43,4.56,37.82,8.5,56.89,15.34l.51.11c2.96.67,5.83,1.62,8.72,2.52,19.71,6.15,39.02,13.47,58.46,20.4l46.58,16.09c23.01,7.92,46.59,16.11,70.12,21.58,64.66,15.03,129.87,12.22,186.89-24.59,22.34-14.41,31.86-23.78,51.32-39.96Z"/>
  <path class="cls-1" d="M199.15,83.44c8.61-7.91,16.4-16.5,25.62-24.75,26.56-24.07,58.36-41.63,92.88-51.28,84.37-23.2,153.45,11.59,222.86,55.88,15.44,9.86,32.48,18.31,48.42,27.38,7.84,3.51,15.65,7.62,23.53,11.21,25.6,11.66,51.55,19.49,79.47,23.24,7.53,1.01,23.63,2.23,31.22,1.35-38.4,19.51-71.82,29.13-115.45,28.1-9.42-.22-20.77-.45-30.04-2.04-4.91-.18-14.09-1.89-19.14-2.75-53.84-9.18-101.59-39.9-151.28-61.98-20.2-8.77-41.08-15.91-62.42-21.33-44.77-11.12-105.65-7.06-145.67,16.97Z"/>
</svg>